<svg xmlns="http://www.w3.org/2000/svg" viewBox="0 0 512 512">
  <defs>
    <radialGradient id="bg" cx="50%" cy="40%" r="70%">
      <stop offset="0%" stop-color="#2a2110"/>
      <stop offset="52%" stop-color="#140f09"/>
      <stop offset="100%" stop-color="#060606"/>
    </radialGradient>
    <linearGradient id="gold" x1="0" y1="0" x2="0" y2="1">
      <stop offset="0%" stop-color="#FBEFC2"/>
      <stop offset="40%" stop-color="#E9CA79"/>
      <stop offset="70%" stop-color="#C7A24E"/>
      <stop offset="100%" stop-color="#87692C"/>
    </linearGradient>
    <radialGradient id="glow" cx="50%" cy="45%" r="45%">
      <stop offset="0%" stop-color="#EACB78" stop-opacity="0.72"/>
      <stop offset="58%" stop-color="#C7A24E" stop-opacity="0.16"/>
      <stop offset="100%" stop-color="#C7A24E" stop-opacity="0"/>
    </radialGradient>
    <filter id="soft" x="-25%" y="-25%" width="150%" height="150%">
      <feGaussianBlur stdDeviation="7"/>
    </filter>
  </defs>
  <rect x="14" y="14" width="484" height="484" rx="118" fill="url(#bg)"/>
  <rect x="14" y="14" width="484" height="484" rx="118" fill="url(#glow)"/>
  <rect x="24" y="24" width="464" height="464" rx="108" fill="none" stroke="#C7A24E" stroke-opacity="0.55" stroke-width="4"/>
  <rect x="24" y="24" width="464" height="464" rx="108" fill="none" stroke="#000" stroke-opacity="0.35" stroke-width="1.5"/>
  <g fill="none" stroke-linecap="round" stroke-linejoin="round">
    <path filter="url(#soft)" stroke="#E9CA79" stroke-opacity="0.55" stroke-width="36"
          d="M150 356 L196 356 C196 300 168 286 168 226 C168 150 214 120 256 120 C298 120 344 150 344 226 C344 286 316 300 316 356 L362 356"/>
    <path stroke="url(#gold)" stroke-width="34"
          d="M150 356 L196 356 C196 300 168 286 168 226 C168 150 214 120 256 120 C298 120 344 150 344 226 C344 286 316 300 316 356 L362 356"/>
  </g>
  <path d="M196 176 C214 146 236 136 256 136" fill="none" stroke="#FFF6DC" stroke-opacity="0.75" stroke-width="9" stroke-linecap="round"/>
</svg>
